{
    "patcher": {
        "fileversion": 1,
        "appversion": {
            "major": 9,
            "minor": 1,
            "revision": 2,
            "architecture": "x64",
            "modernui": 1
        },
        "classnamespace": "box",
        "rect": [ 35.0, 92.0, 1371.0, 774.0 ],
        "boxes": [
            {
                "box": {
                    "id": "obj-144",
                    "maxclass": "message",
                    "numinlets": 2,
                    "numoutlets": 1,
                    "outlettype": [ "" ],
                    "patching_rect": [ 524.3902435898781, 332.5203250050545, 50.0, 22.0 ],
                    "text": "0."
                }
            },
            {
                "box": {
                    "id": "obj-139",
                    "maxclass": "button",
                    "numinlets": 1,
                    "numoutlets": 1,
                    "outlettype": [ "bang" ],
                    "parameter_enable": 0,
                    "patching_rect": [ 653.658536195755, 497.4390243291855, 24.0, 24.0 ]
                }
            },
            {
                "box": {
                    "id": "obj-137",
                    "maxclass": "button",
                    "numinlets": 1,
                    "numoutlets": 1,
                    "outlettype": [ "bang" ],
                    "parameter_enable": 0,
                    "patching_rect": [ 612.1951215863228, 497.4390243291855, 24.0, 24.0 ]
                }
            },
            {
                "box": {
                    "id": "obj-135",
                    "maxclass": "button",
                    "numinlets": 1,
                    "numoutlets": 1,
                    "outlettype": [ "bang" ],
                    "parameter_enable": 0,
                    "patching_rect": [ 573.1707313656807, 497.4390243291855, 24.0, 24.0 ]
                }
            },
            {
                "box": {
                    "id": "obj-133",
                    "maxclass": "button",
                    "numinlets": 1,
                    "numoutlets": 1,
                    "outlettype": [ "bang" ],
                    "parameter_enable": 0,
                    "patching_rect": [ 533.3333330154419, 497.4390243291855, 24.0, 24.0 ]
                }
            },
            {
                "box": {
                    "id": "obj-131",
                    "maxclass": "button",
                    "numinlets": 1,
                    "numoutlets": 1,
                    "outlettype": [ "bang" ],
                    "parameter_enable": 0,
                    "patching_rect": [ 499.18699157238007, 497.4390243291855, 24.0, 24.0 ]
                }
            },
            {
                "box": {
                    "id": "obj-130",
                    "maxclass": "button",
                    "numinlets": 1,
                    "numoutlets": 1,
                    "outlettype": [ "bang" ],
                    "parameter_enable": 0,
                    "patching_rect": [ 466.66666638851166, 497.4390243291855, 24.0, 24.0 ]
                }
            },
            {
                "box": {
                    "id": "obj-128",
                    "maxclass": "button",
                    "numinlets": 1,
                    "numoutlets": 1,
                    "outlettype": [ "bang" ],
                    "parameter_enable": 0,
                    "patching_rect": [ 435.77235746383667, 497.4390243291855, 24.0, 24.0 ]
                }
            },
            {
                "box": {
                    "id": "obj-127",
                    "maxclass": "button",
                    "numinlets": 1,
                    "numoutlets": 1,
                    "outlettype": [ "bang" ],
                    "parameter_enable": 0,
                    "patching_rect": [ 405.6910566687584, 497.4390243291855, 24.0, 24.0 ]
                }
            },
            {
                "box": {
                    "id": "obj-125",
                    "maxclass": "newobj",
                    "numinlets": 2,
                    "numoutlets": 2,
                    "outlettype": [ "bang", "" ],
                    "patching_rect": [ 658.5365849733353, 448.6585365533829, 34.0, 22.0 ],
                    "text": "sel 1"
                }
            },
            {
                "box": {
                    "id": "obj-124",
                    "maxclass": "newobj",
                    "numinlets": 2,
                    "numoutlets": 2,
                    "outlettype": [ "bang", "" ],
                    "patching_rect": [ 622.76422727108, 448.6585365533829, 34.0, 22.0 ],
                    "text": "sel 1"
                }
            },
            {
                "box": {
                    "id": "obj-123",
                    "maxclass": "newobj",
                    "numinlets": 2,
                    "numoutlets": 2,
                    "outlettype": [ "bang", "" ],
                    "patching_rect": [ 586.1788614392281, 448.6585365533829, 34.0, 22.0 ],
                    "text": "sel 1"
                }
            },
            {
                "box": {
                    "id": "obj-122",
                    "maxclass": "newobj",
                    "numinlets": 2,
                    "numoutlets": 2,
                    "outlettype": [ "bang", "" ],
                    "patching_rect": [ 550.4065037369728, 448.6585365533829, 34.0, 22.0 ],
                    "text": "sel 1"
                }
            },
            {
                "box": {
                    "id": "obj-121",
                    "maxclass": "newobj",
                    "numinlets": 2,
                    "numoutlets": 2,
                    "outlettype": [ "bang", "" ],
                    "patching_rect": [ 512.1951216459274, 448.6585365533829, 34.0, 22.0 ],
                    "text": "sel 1"
                }
            },
            {
                "box": {
                    "id": "obj-120",
                    "maxclass": "newobj",
                    "numinlets": 2,
                    "numoutlets": 2,
                    "outlettype": [ "bang", "" ],
                    "patching_rect": [ 477.2357720732689, 448.6585365533829, 34.0, 22.0 ],
                    "text": "sel 1"
                }
            },
            {
                "box": {
                    "id": "obj-119",
                    "maxclass": "newobj",
                    "numinlets": 2,
                    "numoutlets": 2,
                    "outlettype": [ "bang", "" ],
                    "patching_rect": [ 441.46341437101364, 448.6585365533829, 34.0, 22.0 ],
                    "text": "sel 1"
                }
            },
            {
                "box": {
                    "id": "obj-118",
                    "maxclass": "newobj",
                    "numinlets": 2,
                    "numoutlets": 2,
                    "outlettype": [ "bang", "" ],
                    "patching_rect": [ 405.6910566687584, 448.6585365533829, 34.0, 22.0 ],
                    "text": "sel 1"
                }
            },
            {
                "box": {
                    "id": "obj-115",
                    "maxclass": "newobj",
                    "numinlets": 1,
                    "numoutlets": 8,
                    "outlettype": [ "int", "int", "int", "int", "int", "int", "int", "int" ],
                    "patching_rect": [ 489.43089401721954, 395.0, 95.0, 22.0 ],
                    "text": "unpack i i i i i i i i"
                }
            },
            {
                "box": {
                    "id": "obj-114",
                    "maxclass": "number",
                    "numinlets": 1,
                    "numoutlets": 2,
                    "outlettype": [ "", "bang" ],
                    "parameter_enable": 0,
                    "patching_rect": [ 205.0, 416.0, 50.0, 22.0 ]
                }
            },
            {
                "box": {
                    "id": "obj-112",
                    "maxclass": "number",
                    "numinlets": 1,
                    "numoutlets": 2,
                    "outlettype": [ "", "bang" ],
                    "parameter_enable": 0,
                    "patching_rect": [ 321.0, 416.0, 50.0, 22.0 ]
                }
            },
            {
                "box": {
                    "id": "obj-110",
                    "maxclass": "number",
                    "numinlets": 1,
                    "numoutlets": 2,
                    "outlettype": [ "", "bang" ],
                    "parameter_enable": 0,
                    "patching_rect": [ 262.0, 416.0, 50.0, 22.0 ]
                }
            },
            {
                "box": {
                    "id": "obj-106",
                    "maxclass": "message",
                    "numinlets": 2,
                    "numoutlets": 1,
                    "outlettype": [ "" ],
                    "patching_rect": [ 583.0, 272.0, 35.0, 22.0 ],
                    "text": "clear"
                }
            },
            {
                "box": {
                    "id": "obj-101",
                    "maxclass": "newobj",
                    "numinlets": 1,
                    "numoutlets": 3,
                    "outlettype": [ "int", "int", "int" ],
                    "patching_rect": [ 235.0, 371.0, 77.0, 22.0 ],
                    "text": "unpack 0 0 0"
                }
            },
            {
                "box": {
                    "id": "obj-100",
                    "maxclass": "message",
                    "numinlets": 2,
                    "numoutlets": 1,
                    "outlettype": [ "" ],
                    "patching_rect": [ 496.0, 202.0, 42.0, 22.0 ],
                    "text": "$1 0 1"
                }
            },
            {
                "box": {
                    "autosize": 1,
                    "bgcolor": [ 0.08627450980392157, 0.08627450980392157, 0.08627450980392157, 0.0 ],
                    "color": [ 0.9568627450980393, 1.0, 0.0, 0.45 ],
                    "elementcolor": [ 0.221327066888467, 0.221327006361825, 0.221327022178404, 0.0 ],
                    "id": "obj-98",
                    "ignoreclick": 1,
                    "maxclass": "matrixctrl",
                    "numinlets": 1,
                    "numoutlets": 2,
                    "one/row": 1,
                    "outlettype": [ "list", "list" ],
                    "parameter_enable": 0,
                    "patching_rect": [ 182.0, 308.0, 130.0, 18.0 ],
                    "rows": 1
                }
            },
            {
                "box": {
                    "id": "obj-92",
                    "maxclass": "message",
                    "numinlets": 2,
                    "numoutlets": 1,
                    "outlettype": [ "" ],
                    "patching_rect": [ 330.0, 202.0, 81.0, 22.0 ],
                    "text": "getcolumn $1"
                }
            },
            {
                "box": {
                    "id": "obj-88",
                    "maxclass": "newobj",
                    "numinlets": 5,
                    "numoutlets": 4,
                    "outlettype": [ "int", "", "", "int" ],
                    "patching_rect": [ 835.0, 242.0, 79.0, 22.0 ],
                    "text": "counter 0 0 7"
                }
            },
            {
                "box": {
                    "id": "obj-87",
                    "maxclass": "button",
                    "numinlets": 1,
                    "numoutlets": 1,
                    "outlettype": [ "bang" ],
                    "parameter_enable": 0,
                    "patching_rect": [ 821.0, 381.0, 36.0, 36.0 ]
                }
            },
            {
                "box": {
                    "id": "obj-85",
                    "maxclass": "toggle",
                    "numinlets": 1,
                    "numoutlets": 1,
                    "outlettype": [ "int" ],
                    "parameter_enable": 0,
                    "patching_rect": [ 810.0, 130.0, 35.0, 35.0 ]
                }
            },
            {
                "box": {
                    "id": "obj-83",
                    "maxclass": "newobj",
                    "numinlets": 2,
                    "numoutlets": 1,
                    "outlettype": [ "float" ],
                    "patching_rect": [ 879.0, 130.0, 29.5, 22.0 ],
                    "text": "* 1."
                }
            },
            {
                "box": {
                    "id": "obj-80",
                    "maxclass": "newobj",
                    "numinlets": 2,
                    "numoutlets": 1,
                    "outlettype": [ "float" ],
                    "patching_rect": [ 879.0, 81.33333575725555, 55.0, 22.0 ],
                    "text": "!/ 60000."
                }
            },
            {
                "box": {
                    "fontsize": 12.0,
                    "id": "obj-79",
                    "maxclass": "number",
                    "numinlets": 1,
                    "numoutlets": 2,
                    "outlettype": [ "", "bang" ],
                    "parameter_enable": 0,
                    "patching_rect": [ 879.0, 36.0, 50.0, 22.0 ]
                }
            },
            {
                "box": {
                    "id": "obj-77",
                    "maxclass": "newobj",
                    "numinlets": 2,
                    "numoutlets": 1,
                    "outlettype": [ "bang" ],
                    "patching_rect": [ 835.0, 191.0, 63.0, 22.0 ],
                    "text": "metro 500"
                }
            },
            {
                "box": {
                    "autosize": 1,
                    "id": "obj-69",
                    "maxclass": "matrixctrl",
                    "numinlets": 1,
                    "numoutlets": 2,
                    "outlettype": [ "list", "list" ],
                    "parameter_enable": 0,
                    "patching_rect": [ 330.0, 308.0, 130.0, 18.0 ],
                    "rows": 1
                }
            },
            {
                "box": {
                    "id": "obj-4",
                    "linecount": 2,
                    "maxclass": "comment",
                    "numinlets": 1,
                    "numoutlets": 0,
                    "patching_rect": [ 72.00000214576721, 81.33333575725555, 150.0, 33.0 ],
                    "text": "dial — changes time signature (2 to 8)"
                }
            },
            {
                "box": {
                    "id": "obj-2",
                    "maxclass": "comment",
                    "numinlets": 1,
                    "numoutlets": 0,
                    "patching_rect": [ 72.00000214576721, 53.33333492279053, 150.0, 20.0 ],
                    "text": "1 channel"
                }
            }
        ],
        "lines": [
            {
                "patchline": {
                    "destination": [ "obj-98", 0 ],
                    "midpoints": [ 505.5, 266.0, 191.5, 266.0 ],
                    "source": [ "obj-100", 0 ]
                }
            },
            {
                "patchline": {
                    "destination": [ "obj-110", 0 ],
                    "source": [ "obj-101", 1 ]
                }
            },
            {
                "patchline": {
                    "destination": [ "obj-112", 0 ],
                    "source": [ "obj-101", 2 ]
                }
            },
            {
                "patchline": {
                    "destination": [ "obj-114", 0 ],
                    "source": [ "obj-101", 0 ]
                }
            },
            {
                "patchline": {
                    "destination": [ "obj-69", 0 ],
                    "order": 0,
                    "source": [ "obj-106", 0 ]
                }
            },
            {
                "patchline": {
                    "destination": [ "obj-98", 0 ],
                    "midpoints": [ 592.5, 283.7076981810387, 191.5, 283.7076981810387 ],
                    "order": 1,
                    "source": [ "obj-106", 0 ]
                }
            },
            {
                "patchline": {
                    "destination": [ "obj-118", 0 ],
                    "source": [ "obj-115", 0 ]
                }
            },
            {
                "patchline": {
                    "destination": [ "obj-119", 0 ],
                    "source": [ "obj-115", 1 ]
                }
            },
            {
                "patchline": {
                    "destination": [ "obj-120", 0 ],
                    "source": [ "obj-115", 2 ]
                }
            },
            {
                "patchline": {
                    "destination": [ "obj-121", 0 ],
                    "source": [ "obj-115", 3 ]
                }
            },
            {
                "patchline": {
                    "destination": [ "obj-122", 0 ],
                    "source": [ "obj-115", 4 ]
                }
            },
            {
                "patchline": {
                    "destination": [ "obj-123", 0 ],
                    "source": [ "obj-115", 5 ]
                }
            },
            {
                "patchline": {
                    "destination": [ "obj-124", 0 ],
                    "source": [ "obj-115", 6 ]
                }
            },
            {
                "patchline": {
                    "destination": [ "obj-125", 0 ],
                    "source": [ "obj-115", 7 ]
                }
            },
            {
                "patchline": {
                    "destination": [ "obj-127", 0 ],
                    "source": [ "obj-118", 0 ]
                }
            },
            {
                "patchline": {
                    "destination": [ "obj-128", 0 ],
                    "source": [ "obj-119", 0 ]
                }
            },
            {
                "patchline": {
                    "destination": [ "obj-130", 0 ],
                    "source": [ "obj-120", 0 ]
                }
            },
            {
                "patchline": {
                    "destination": [ "obj-131", 0 ],
                    "source": [ "obj-121", 0 ]
                }
            },
            {
                "patchline": {
                    "destination": [ "obj-133", 0 ],
                    "source": [ "obj-122", 0 ]
                }
            },
            {
                "patchline": {
                    "destination": [ "obj-135", 0 ],
                    "source": [ "obj-123", 0 ]
                }
            },
            {
                "patchline": {
                    "destination": [ "obj-137", 0 ],
                    "source": [ "obj-124", 0 ]
                }
            },
            {
                "patchline": {
                    "destination": [ "obj-139", 0 ],
                    "source": [ "obj-125", 0 ]
                }
            },
            {
                "patchline": {
                    "destination": [ "obj-115", 0 ],
                    "order": 1,
                    "source": [ "obj-69", 1 ]
                }
            },
            {
                "patchline": {
                    "destination": [ "obj-144", 1 ],
                    "order": 0,
                    "source": [ "obj-69", 1 ]
                }
            },
            {
                "patchline": {
                    "destination": [ "obj-88", 0 ],
                    "source": [ "obj-77", 0 ]
                }
            },
            {
                "patchline": {
                    "destination": [ "obj-80", 0 ],
                    "source": [ "obj-79", 0 ]
                }
            },
            {
                "patchline": {
                    "destination": [ "obj-83", 0 ],
                    "source": [ "obj-80", 0 ]
                }
            },
            {
                "patchline": {
                    "destination": [ "obj-77", 1 ],
                    "source": [ "obj-83", 0 ]
                }
            },
            {
                "patchline": {
                    "destination": [ "obj-77", 0 ],
                    "order": 1,
                    "source": [ "obj-85", 0 ]
                }
            },
            {
                "patchline": {
                    "destination": [ "obj-88", 2 ],
                    "order": 0,
                    "source": [ "obj-85", 0 ]
                }
            },
            {
                "patchline": {
                    "destination": [ "obj-100", 0 ],
                    "midpoints": [ 844.5, 247.95833334885538, 675.0, 247.95833334885538, 675.0, 192.0, 505.5, 192.0 ],
                    "order": 0,
                    "source": [ "obj-88", 0 ]
                }
            },
            {
                "patchline": {
                    "destination": [ "obj-92", 0 ],
                    "midpoints": [ 844.5, 191.16844517132267, 699.320248919772, 191.16844517132267, 699.320248919772, 156.72624493972398, 339.5, 156.72624493972398 ],
                    "order": 1,
                    "source": [ "obj-88", 0 ]
                }
            },
            {
                "patchline": {
                    "destination": [ "obj-69", 0 ],
                    "source": [ "obj-92", 0 ]
                }
            },
            {
                "patchline": {
                    "destination": [ "obj-101", 0 ],
                    "midpoints": [ 191.5, 348.5, 244.5, 348.5 ],
                    "source": [ "obj-98", 0 ]
                }
            }
        ],
        "autosave": 0
    }
}